<?xml version="1.0" encoding="utf-8"?>
<!-- Generator: Adobe Illustrator 19.1.0, SVG Export Plug-In . SVG Version: 6.00 Build 0)  -->
<svg version="1.1" id="Layer_1" xmlns="http://www.w3.org/2000/svg" xmlns:xlink="http://www.w3.org/1999/xlink" x="0px" y="0px"
	 viewBox="0 0 80 80" style="enable-background:new 0 0 80 80;" xml:space="preserve">
<style type="text/css">
	.st0{fill:#47B688;}
	.st1{fill:#1C7CBA;}
	.st2{fill:#BBEC6C;}
</style>
<g>
	<g>
		<g>
			<path d="M58.1,68.4L58.1,68.4l-0.3,0.2l-0.3,0.2c-2.8,1.9-16.9,11.4-25.1,8.4c-0.7-0.2-3.1-1.2-5-7.5c-0.9-2.9-2.9-10.9-5-19.4
				c-2.4-9.7-5.1-20.8-6.1-23.5l-6.5-9.3c-0.3-0.2-1.2-1-2.1-1.4C7,16,5.9,15.6,5.8,14.7c-0.1-0.6,0.2-1.1,0.8-1.5L23.4,1.4
				C24,1,24.6,0.9,25.1,1.2c0.9,0.4,0.9,1.6,0.9,2.2c0,1,0.4,2.1,0.5,2.5l6.5,9.3C35.2,17,44.6,23.4,53,29
				c7.2,4.9,14.1,9.5,16.5,11.3c5.2,4,5.4,6.6,5.3,7.3C74.7,56.3,60.9,66.5,58.1,68.4z M56.6,67l0.3-0.2l0,0
				c1.6-1.1,15.9-11.3,15.8-19.2l0-0.2l0,0c0,0,0-2-4.5-5.5c-2.4-1.8-9.2-6.4-16.4-11.3c-8.9-6-18.1-12.2-20.3-14.1l-0.2-0.2
				l-6.7-9.6c0-0.1-0.7-1.7-0.7-3.2L8.4,14.4c1.4,0.6,2.7,1.7,2.8,1.8l0.1,0.2L18,26c1,2.7,3.7,13.5,6.3,23.9
				c2.1,8.4,4.1,16.4,5,19.3c1.7,5.5,3.6,6.2,3.7,6.2l0.1,0c7.4,2.7,21.7-7,23.3-8.2L56.6,67z"/>
		</g>
	</g>
	<g>
		<g>
			<path class="st1" d="M19.9,27.8c1,2.5,3.5,12.7,5.9,22.5c2,8,3.8,15.5,4.7,18.2c1.6,5.2,3.4,5.8,3.4,5.8l0.1,0
				c7,2.6,20.5-6.6,22-7.7l0.3-0.2l0.3-0.2l0,0c1.5-1.1,15-10.7,14.9-18.1l0-0.2l0,0c0,0,0-1.9-4.3-5.2c-2.2-1.7-8.7-6-15.5-10.6
				c-8.4-5.7-17.1-11.5-19.1-13.3l-0.2-0.2 M42.3,44.1"/>
		</g>
	</g>
</g>
<g>
	<path class="st2" d="M42.7,55.8c-0.5-0.5-0.9-1.1-0.7-1.5c0.3-0.7,2.5-0.2,3.2,0.1c0.5,0.2,0.8,0.7,0.8,1.2
		C45.1,55.5,43.9,55.5,42.7,55.8z M48.2,56c0.1-1.3-0.6-2.7-1.9-3.2c-0.8-0.4-2.6-0.8-4.2-1l0,0c0,0,0,0,0,0c-0.1,0-0.3,0-0.4,0
		c-0.4-0.1-1.2-0.4-2.3-1.3c0,0,0,0,0,0c0,0,0,0,0,0c-0.4-0.4-1-0.3-1.3,0.1c-0.1,0.1-0.3,0.3-0.4,0.5c-3.5-3.1-5.1-6.9-3.8-9.9
		c1.9-4.3,9-5.3,16-2.3c7,3,11.1,9,9.3,13.3C57.7,55.5,53.3,56.9,48.2,56z"/>
	<path d="M60.9,52.9c2.3-5.3-2.2-12.4-10.2-15.8s-16.2-1.9-18.5,3.4c-2,4.6,1.2,10.6,7.3,14.3c0.4,0.5,0.8,1,1.3,1.5
		c-0.7,0.3-1.4,0.6-2.1,1.1c-4.2,2.9-4.5,7.6-4.5,7.8c0,0.5,0.4,1,0.9,1c0.5,0,1-0.4,1-0.9c0,0,0.2-3.9,3.7-6.3
		c0.9-0.6,1.8-1,2.7-1.2c0.5,0.4,1,0.7,1.3,0.8c1.3,0.6,2.8,0.2,3.6-0.8C53.6,58.9,59.1,57.1,60.9,52.9z M42.7,55.8
		c-0.5-0.5-0.9-1.1-0.7-1.5c0.3-0.7,2.5-0.2,3.2,0.1c0.5,0.2,0.8,0.7,0.8,1.2C45.1,55.5,43.9,55.5,42.7,55.8z M48.2,56
		c0.1-1.3-0.6-2.7-1.9-3.2c-0.8-0.4-2.6-0.8-4.2-1l0,0c0,0,0,0,0,0c-0.1,0-0.3,0-0.4,0c-0.4-0.1-1.2-0.4-2.3-1.3c0,0,0,0,0,0
		c0,0,0,0,0,0c-0.4-0.4-1-0.3-1.3,0.1c-0.1,0.1-0.3,0.3-0.4,0.5c-3.5-3.1-5.1-6.9-3.8-9.9c1.9-4.3,9-5.3,16-2.3c7,3,11.1,9,9.3,13.3
		C57.7,55.5,53.3,56.9,48.2,56z"/>
</g>
</svg>
